<svg xmlns="http://www.w3.org/2000/svg" viewBox="0 0 78.24 129.91"><defs><style>.cls-1{fill:#fe251c;}.cls-2{fill:#e3282c;}.cls-3{fill:#51cb96;}.cls-4{fill:#3cac84;}.cls-5{fill:#fe972d;}.cls-6{fill:#f77104;}.cls-7{fill:#ff6a02;}.cls-8{fill:#fb8e20;}</style></defs><title>Asset 2</title><g id="Layer_2" data-name="Layer 2"><g id="Layer_1-2" data-name="Layer 1"><rect class="cls-1" y="116.91" width="78" height="13"/><path class="cls-2" d="M38,122.59q-1.61,1.16-3.22,2.33c-.74.6-1.64,1.32-2.15,1.75q-1.88,1.6-3.73,3.24H78.24v-13h-32C43.48,118.76,40.73,120.64,38,122.59Z"/><rect class="cls-3" x="13" y="95.91" width="51" height="21"/><path class="cls-4" d="M28.72,116.91H63.93V96.11H56Q42.67,106.87,28.72,116.91Z"/><circle class="cls-5" cx="38.58" cy="89.6" r="6.92"/><path class="cls-6" d="M39.76,91.51a22.19,22.19,0,0,1-5.08,3.79,6.9,6.9,0,0,0,9.39-9.88A22.2,22.2,0,0,1,39.76,91.51Z"/><path class="cls-7" d="M45,3.9V82.69H28.89V23.6H12.76V11.88h8.07c4.4,0,10.84-.41,10.84-4.84Z"/><path class="cls-8" d="M47.63,0V78.79H31.49V19.7H15.36V8h8.07a8,8,0,0,0,8.07-8Z"/><rect class="cls-7" x="39.23" width="8.4" height="82.69"/></g></g></svg>