<svg xmlns="http://www.w3.org/2000/svg" viewBox="0 0 78.76 127.3"><defs><style>.cls-1{fill:#fe251c;}.cls-2{fill:#e3282c;}.cls-3{fill:#51cb96;}.cls-4{fill:#3cac84;}.cls-5{fill:#dcd2c5;}.cls-6{fill:#a39c8a;}.cls-7{fill:#a9a393;}.cls-8{fill:#bcb6a5;}.cls-9{fill:#d6d0bb;}</style></defs><title>Asset 4</title><g id="Layer_2" data-name="Layer 2"><g id="Layer_1-2" data-name="Layer 1"><rect class="cls-1" y="114.3" width="78" height="13"/><path class="cls-2" d="M38.54,120q-1.61,1.16-3.22,2.33c-.74.6-1.64,1.32-2.15,1.75q-1.88,1.6-3.73,3.24H78.76v-13h-32C44,116.15,41.25,118,38.54,120Z"/><rect class="cls-3" x="13" y="93.3" width="51" height="21"/><path class="cls-4" d="M29.25,114.3H64.46V93.5h-7.9Q43.19,104.26,29.25,114.3Z"/><rect class="cls-1" y="114.3" width="78" height="13"/><path class="cls-2" d="M38.54,120q-1.61,1.16-3.22,2.33c-.74.6-1.64,1.32-2.15,1.75q-1.88,1.6-3.73,3.24H78.76v-13h-32C44,116.15,41.25,118,38.54,120Z"/><rect class="cls-3" x="13" y="93.3" width="51" height="21"/><path class="cls-4" d="M29.25,114.3H64.46V93.5h-7.9Q43.19,104.26,29.25,114.3Z"/><circle class="cls-5" cx="39.11" cy="86.99" r="6.92"/><path class="cls-6" d="M40.29,88.9a22.19,22.19,0,0,1-5.08,3.79,6.9,6.9,0,0,0,9.39-9.88A22.21,22.21,0,0,1,40.29,88.9Z"/><path class="cls-7" d="M35.1,68.35h35V80.07H18.36V68.35L53.71,33.49a13.3,13.3,0,0,0,3.55-9.26c0-6.89-5-12.41-11.23-12.41S34.8,17.33,34.8,24.23v3.15h-13V24.23a24.23,24.23,0,1,1,41.37,17Z"/><path class="cls-7" d="M28.6,68.35h35V80.07H11.85V68.35L47.21,33.49a13.3,13.3,0,0,0,3.54-9.26c0-6.89-5-12.41-11.23-12.41S28.3,17.33,28.3,24.23v3.15h-13V24.23a24.23,24.23,0,1,1,41.37,17Z"/><path class="cls-8" d="M31.2,68.35h35V80.07H14.46V68.35L49.81,33.49a13.3,13.3,0,0,0,3.54-9.26c0-6.89-5-12.41-11.23-12.41S30.9,17.33,30.9,24.23v3.15h-13V24.23a24.23,24.23,0,1,1,41.37,17Z"/><rect class="cls-9" x="14.46" y="72.69" width="51.71" height="7.38"/><path class="cls-9" d="M20.25,27.3h6.5s2-24.05,26-18.42C52.76,8.88,26.32-6.7,20.25,27.3Z"/><path class="cls-9" d="M58,21.12S60.13,30.35,51,40,37.81,53.62,37.81,53.62,64.46,41.05,58,21.12Z"/></g></g></svg>