<svg xmlns="http://www.w3.org/2000/svg" viewBox="0 0 78.59 129.79"><defs><style>.cls-1{fill:#fe251c;}.cls-2{fill:#e3282c;}.cls-3{fill:#51cb96;}.cls-4{fill:#3cac84;}.cls-5{fill:#ec8250;}.cls-6{fill:#de3805;}.cls-7{fill:#d22915;}.cls-8{fill:#e84510;}.cls-9{fill:#f18c5b;}</style></defs><title>Asset 3</title><g id="Layer_2" data-name="Layer 2"><g id="Layer_1-2" data-name="Layer 1"><rect class="cls-1" y="116.79" width="78" height="13"/><path class="cls-2" d="M38.37,122.47q-1.61,1.16-3.22,2.33c-.74.6-1.64,1.32-2.15,1.75q-1.88,1.6-3.73,3.24H78.59v-13h-32C43.84,118.65,41.08,120.52,38.37,122.47Z"/><rect class="cls-3" x="13" y="95.79" width="51" height="21"/><path class="cls-4" d="M29.08,116.79H64.29V96h-7.9Q43,106.75,29.08,116.79Z"/><circle class="cls-5" cx="38.94" cy="89.49" r="6.92"/><path class="cls-6" d="M40.12,91.39A22.23,22.23,0,0,1,35,95.18a6.9,6.9,0,0,0,9.39-9.88A22.21,22.21,0,0,1,40.12,91.39Z"/><path class="cls-7" d="M65.67,58.44c0,14.87-11.33,25.31-26.69,25.31S12.2,73.31,12.2,58.44h13v.1c0,8,4.92,13.59,13.79,13.59s13.69-5.61,13.69-13.59S48,44.85,39,44.85H32.09V33.13h7c7.19,0,11.23-3.94,11.23-9.45s-3.74-9.36-11.23-9.36S28,18.16,28,23.68H15C15,11.27,24.61,2.6,38.2,2.6c14.67,0,25.11,8.67,25.11,21.08,0,6.1-4.43,11.72-8.86,15C60.26,42.68,65.67,50.17,65.67,58.44Z"/><path class="cls-8" d="M61.77,55.84c0,14.87-11.33,25.31-26.69,25.31S8.3,70.71,8.3,55.84h13v.1c0,8,4.92,13.59,13.79,13.59s13.69-5.61,13.69-13.59S44.14,42.25,35.09,42.25H28.19V30.53h7c7.19,0,11.23-3.94,11.23-9.45s-3.74-9.36-11.23-9.36-11.13,3.84-11.13,9.36h-13C11.05,8.67,20.7,0,34.3,0,49,0,59.41,8.67,59.41,21.08c0,6.1-4.43,11.72-8.86,15C56.36,40.08,61.77,47.57,61.77,55.84Z"/><path class="cls-9" d="M47.39,31.41l1.8-1.63A11.31,11.31,0,0,0,52,24.22a13,13,0,0,0-1.8-8.67,16.09,16.09,0,0,0-8-7,20.46,20.46,0,0,0-5.61-1.16,24.65,24.65,0,0,0-5.45.1,16,16,0,0,0-8.4,3.36A11.32,11.32,0,0,0,19.33,16a15.83,15.83,0,0,0-.41,1.74l-.13.63s0-.22,0-.63a13.47,13.47,0,0,1,0-1.84,11.45,11.45,0,0,1,2.71-6.35,16.55,16.55,0,0,1,9.12-5A23.75,23.75,0,0,1,36.79,4a20.48,20.48,0,0,1,6.63,1.23,17.34,17.34,0,0,1,9.38,9,14.11,14.11,0,0,1,.88,10.44,11.45,11.45,0,0,1-4.14,5.54C48.15,31,47.39,31.41,47.39,31.41Z"/><path class="cls-9" d="M48.69,43.11l.62.49A14.88,14.88,0,0,1,51,45.1a17.14,17.14,0,0,1,4.38,7.24,19.2,19.2,0,0,1-1,12.73A23.41,23.41,0,0,1,43.71,76.64a19.5,19.5,0,0,1-8.12,2.14,18.14,18.14,0,0,1-7.69-1.4,12.42,12.42,0,0,1-1.66-.79,12,12,0,0,1-1.53-.92,15.31,15.31,0,0,1-2.62-2.22L21,72.27,20.13,71a15.42,15.42,0,0,1-1.44-2.47,24.48,24.48,0,0,1-2.36-8.08,20,20,0,0,1-.13-2.26c0-.51,0-.78,0-.78l.17.77c.13.5.21,1.25.51,2.17a26.66,26.66,0,0,0,3.33,7.32,16.59,16.59,0,0,0,8.75,7,16.87,16.87,0,0,0,13.2-1.1,22.6,22.6,0,0,0,9.62-9.7A18.35,18.35,0,0,0,53.7,52.72a17.54,17.54,0,0,0-3.11-7.28,16.59,16.59,0,0,0-1.39-1.74Z"/></g></g></svg>