<svg version="1.1" xmlns="http://www.w3.org/2000/svg" xmlns:xlink="http://www.w3.org/1999/xlink" width="48" height="48"><defs><linearGradient x1="14.22989" y1="14.46086" x2="76.19652" y2="75.96555" gradientUnits="userSpaceOnUse" id="color-1"><stop offset="0" stop-color="#000000" stop-opacity="0.15"></stop><stop offset="1" stop-color="#000000" stop-opacity="0"></stop></linearGradient><filter id="dropshadow-base"><feColorMatrix type="matrix" values="0 0 0 0 0  0 0 0 0 0  0 0 0 0 0  0 0 0 .8 0"></feColorMatrix> <feOffset dx="0" dy="1"></feOffset> <feGaussianBlur stdDeviation="1"></feGaussianBlur> <feComposite in="SourceGraphic"></feComposite></filter><filter id="dropshadow-banner" x="-10%" y="-10%" width="120%" height="130%"><feColorMatrix type="matrix" values="0 0 0 0 0  0 0 0 0 0  0 0 0 0 0  0 0 0 .4 0"></feColorMatrix> <feOffset dx="0" dy="1"></feOffset> <feGaussianBlur stdDeviation="0.5"></feGaussianBlur> <feComposite in="SourceGraphic"></feComposite></filter></defs><g fill="none" fill-rule="nonzero" stroke="none" stroke-width="none" stroke-linecap="butt" stroke-linejoin="miter" stroke-miterlimit="10" stroke-dasharray="" stroke-dashoffset="0" font-family="none" font-weight="none" font-size="none" text-anchor="none" style="mix-blend-mode: normal"><path d="M2,24c0,-12.15026 9.84974,-22 22,-22c12.15026,0 22,9.84974 22,22c0,12.15026 -9.84974,22 -22,22c-12.15026,0 -22,-9.84974 -22,-22z" id="base 1 5" fill="#90a4ae" stroke-width="1"></path><path d="M14.56338,16.39949l0.80257,0.80257l0,10.43708c0,0.12391 0.05165,0.23752 0.13428,0.32014l5.06259,5.06259l-0.10592,0.11295c-0.10479,0.07782 -0.11776,0.25168 -0.02587,0.34356l11.17233,11.17233c7.45942,-2.74737 13.01975,-9.42102 14.17484,-17.51479l-12.34157,-12.34157c-0.20583,-0.20583 -0.48985,-0.33349 -0.80257,-0.33349l-17.2681,0c-0.62545,0 -1.13606,0.51061 -1.13606,1.13606c0,0.31272 0.12765,0.59674 0.33349,0.80257z" fill="url(#color-1)" stroke-width="1"></path><path d="M15.36595,14.46086c-0.62545,0 -1.13606,0.51061 -1.13606,1.13606c0,0.62545 0.51061,1.13606 1.13606,1.13606v10.90616c0,0.24782 0.2066,0.45442 0.45442,0.45442h7.95241v1.50528l-3.31588,3.53598c-0.10647,0.07907 -0.11815,0.25729 -0.02136,0.34793c0.09688,0.09052 0.27622,0.06896 0.34793,-0.04262l2.98931,-3.18805v1.47688c0,0.12549 0.10172,0.22721 0.22721,0.22721c0.12549,0 0.22721,-0.10172 0.22721,-0.22721v-1.47688l2.98924,3.18805c0.07171,0.11158 0.25102,0.13315 0.34793,0.04262c0.09691,-0.09061 0.08525,-0.26886 -0.02136,-0.34793l-3.31582,-3.53598v-1.50528h7.95241c0.24782,0 0.45442,-0.2066 0.45442,-0.45442v-10.90616c0.62545,0 1.13606,-0.51061 1.13606,-1.13606c0,-0.62545 -0.51061,-1.13606 -1.13606,-1.13606zM15.36595,14.91529h17.2681c0.38156,0 0.68164,0.30008 0.68164,0.68164c0,0.38156 -0.30008,0.68164 -0.68164,0.68164h-17.2681c-0.38156,0 -0.68164,-0.30008 -0.68164,-0.68164c0,-0.38156 0.30008,-0.68164 0.68164,-0.68164zM15.82037,16.73298h16.35925v10.90616h-16.35925zM20.36461,19.0051c-1.7541,0 -3.18097,1.42687 -3.18097,3.18097c0,1.75409 1.42687,3.18096 3.18097,3.18096c0.97251,0 1.83783,-0.44652 2.42121,-1.13606h2.42835c0.58343,0.68954 1.4487,1.13606 2.42121,1.13606c1.7541,0 3.18097,-1.42687 3.18097,-3.18096c0,-1.7541 -1.42687,-3.18097 -3.18097,-3.18097c-0.97403,0 -1.83783,0.44465 -2.42121,1.13606h-2.42835c-0.58343,-0.69141 -1.44718,-1.13606 -2.42121,-1.13606zM20.36461,19.45952c0.87572,0 1.65224,0.40423 2.15142,1.04377c0.04171,0.05656 0.10724,0.09063 0.1775,0.09229h2.61294c0.07025,-0.00166 0.13579,-0.03574 0.1775,-0.09229c0.49914,-0.63953 1.2757,-1.04377 2.15142,-1.04377c1.50853,0 2.72654,1.21801 2.72654,2.72654c0,1.50852 -1.21801,2.72654 -2.72654,2.72654c-0.87572,0 -1.65224,-0.41134 -2.15142,-1.05085c-0.04315,-0.05389 -0.10846,-0.08524 -0.1775,-0.0852h-2.61294c-0.06904,-0.00004 -0.13435,0.03131 -0.1775,0.0852c-0.49914,0.63951 -1.2757,1.05085 -2.15142,1.05085c-1.50853,0 -2.72654,-1.21801 -2.72654,-2.72654c0,-1.50853 1.21801,-2.72654 2.72654,-2.72654zM20.36461,20.59558c-0.12549,0 -0.22721,0.10172 -0.22721,0.22721v1.13606h-1.13606c-0.12549,0 -0.22721,0.10172 -0.22721,0.22721c0,0.12549 0.10172,0.22721 0.22721,0.22721h1.13606v1.13605c0,0.12549 0.10172,0.22721 0.22721,0.22721c0.12549,0 0.22721,-0.10172 0.22721,-0.22721v-1.13605h1.13606c0.12549,0 0.22721,-0.10172 0.22721,-0.22721c0,-0.12549 -0.10172,-0.22721 -0.22721,-0.22721h-1.13606v-1.13606c0,-0.12549 -0.10172,-0.22721 -0.22721,-0.22721zM27.63539,20.59558c-0.25098,0 -0.45442,0.20345 -0.45442,0.45442c0,0.25098 0.20345,0.45442 0.45442,0.45442c0.25098,0 0.45442,-0.20345 0.45442,-0.45442c0,-0.25098 -0.20345,-0.45442 -0.45442,-0.45442zM26.49933,21.73164c-0.25098,0 -0.45442,0.20345 -0.45442,0.45442c0,0.25098 0.20345,0.45442 0.45442,0.45442c0.25098,0 0.45442,-0.20345 0.45442,-0.45442c0,-0.25098 -0.20345,-0.45442 -0.45442,-0.45442zM28.77145,21.73164c-0.25098,0 -0.45442,0.20345 -0.45442,0.45442c0,0.25098 0.20345,0.45442 0.45442,0.45442c0.25098,0 0.45442,-0.20345 0.45442,-0.45442c0,-0.25098 -0.20345,-0.45442 -0.45442,-0.45442zM27.63539,22.8677c-0.25098,0 -0.45442,0.20345 -0.45442,0.45442c0,0.25097 0.20345,0.45442 0.45442,0.45442c0.25098,0 0.45442,-0.20345 0.45442,-0.45442c0,-0.25098 -0.20345,-0.45442 -0.45442,-0.45442z" fill="none" stroke-width="0"></path><path d="M15.36595,14.46086c-0.62545,0 -1.13606,0.51061 -1.13606,1.13606c0,0.62545 0.51061,1.13606 1.13606,1.13606v10.90616c0,0.24782 0.2066,0.45442 0.45442,0.45442h7.95241v1.50528l-3.31588,3.53598c-0.10647,0.07907 -0.11815,0.25729 -0.02136,0.34793c0.09688,0.09052 0.27622,0.06896 0.34793,-0.04262l2.98931,-3.18805v1.47688c0,0.12549 0.10172,0.22721 0.22721,0.22721c0.12549,0 0.22721,-0.10172 0.22721,-0.22721v-1.47688l2.98924,3.18805c0.07171,0.11158 0.25102,0.13315 0.34793,0.04262c0.09691,-0.09061 0.08525,-0.26886 -0.02136,-0.34793l-3.31582,-3.53598v-1.50528h7.95241c0.24782,0 0.45442,-0.2066 0.45442,-0.45442v-10.90616c0.62545,0 1.13606,-0.51061 1.13606,-1.13606c0,-0.62545 -0.51061,-1.13606 -1.13606,-1.13606zM15.36595,14.91529h17.2681c0.38156,0 0.68164,0.30008 0.68164,0.68164c0,0.38156 -0.30008,0.68164 -0.68164,0.68164h-17.2681c-0.38156,0 -0.68164,-0.30008 -0.68164,-0.68164c0,-0.38156 0.30008,-0.68164 0.68164,-0.68164zM15.82037,16.73298h16.35925v10.90616h-16.35925zM20.36461,19.0051c-1.7541,0 -3.18097,1.42687 -3.18097,3.18097c0,1.75409 1.42687,3.18096 3.18097,3.18096c0.97251,0 1.83783,-0.44652 2.42121,-1.13606h2.42835c0.58343,0.68954 1.4487,1.13606 2.42121,1.13606c1.7541,0 3.18097,-1.42687 3.18097,-3.18096c0,-1.7541 -1.42687,-3.18097 -3.18097,-3.18097c-0.97403,0 -1.83783,0.44465 -2.42121,1.13606h-2.42835c-0.58343,-0.69141 -1.44718,-1.13606 -2.42121,-1.13606zM20.36461,19.45952c0.87572,0 1.65224,0.40423 2.15142,1.04377c0.04171,0.05656 0.10724,0.09063 0.1775,0.09229h2.61294c0.07025,-0.00166 0.13579,-0.03574 0.1775,-0.09229c0.49914,-0.63953 1.2757,-1.04377 2.15142,-1.04377c1.50853,0 2.72654,1.21801 2.72654,2.72654c0,1.50852 -1.21801,2.72654 -2.72654,2.72654c-0.87572,0 -1.65224,-0.41134 -2.15142,-1.05085c-0.04315,-0.05389 -0.10846,-0.08524 -0.1775,-0.0852h-2.61294c-0.06904,-0.00004 -0.13435,0.03131 -0.1775,0.0852c-0.49914,0.63951 -1.2757,1.05085 -2.15142,1.05085c-1.50853,0 -2.72654,-1.21801 -2.72654,-2.72654c0,-1.50853 1.21801,-2.72654 2.72654,-2.72654zM20.36461,20.59558c-0.12549,0 -0.22721,0.10172 -0.22721,0.22721v1.13606h-1.13606c-0.12549,0 -0.22721,0.10172 -0.22721,0.22721c0,0.12549 0.10172,0.22721 0.22721,0.22721h1.13606v1.13605c0,0.12549 0.10172,0.22721 0.22721,0.22721c0.12549,0 0.22721,-0.10172 0.22721,-0.22721v-1.13605h1.13606c0.12549,0 0.22721,-0.10172 0.22721,-0.22721c0,-0.12549 -0.10172,-0.22721 -0.22721,-0.22721h-1.13606v-1.13606c0,-0.12549 -0.10172,-0.22721 -0.22721,-0.22721zM27.63539,20.59558c-0.25098,0 -0.45442,0.20345 -0.45442,0.45442c0,0.25098 0.20345,0.45442 0.45442,0.45442c0.25098,0 0.45442,-0.20345 0.45442,-0.45442c0,-0.25098 -0.20345,-0.45442 -0.45442,-0.45442zM26.49933,21.73164c-0.25098,0 -0.45442,0.20345 -0.45442,0.45442c0,0.25098 0.20345,0.45442 0.45442,0.45442c0.25098,0 0.45442,-0.20345 0.45442,-0.45442c0,-0.25098 -0.20345,-0.45442 -0.45442,-0.45442zM28.77145,21.73164c-0.25098,0 -0.45442,0.20345 -0.45442,0.45442c0,0.25098 0.20345,0.45442 0.45442,0.45442c0.25098,0 0.45442,-0.20345 0.45442,-0.45442c0,-0.25098 -0.20345,-0.45442 -0.45442,-0.45442zM27.63539,22.8677c-0.25098,0 -0.45442,0.20345 -0.45442,0.45442c0,0.25097 0.20345,0.45442 0.45442,0.45442c0.25098,0 0.45442,-0.20345 0.45442,-0.45442c0,-0.25098 -0.20345,-0.45442 -0.45442,-0.45442z" fill="#ffffff" stroke-width="0"></path><path d="M2,24c0,-12.15026 9.84974,-22 22,-22c12.15026,0 22,9.84974 22,22c0,12.15026 -9.84974,22 -22,22c-12.15026,0 -22,-9.84974 -22,-22z" id="base 1 1 1" fill="none" stroke-width="1"></path><g fill="#000000" stroke-width="1" font-family="Roboto, sans-serif" font-weight="normal" font-size="14" text-anchor="start"><g></g></g><rect x="2" y="2" width="44" height="22" fill="none" stroke-width="1"></rect><path d="M2,24v-22h44v22z" fill="none" stroke-width="1"></path><path d="M2,24v-22h44v22z" fill="none" stroke-width="1"></path><path d="M2,24v-22h44v22z" fill="none" stroke-width="1"></path><path d="M2,24v-22h44v22z" fill="none" stroke-width="1"></path></g></svg>